<svg xmlns="http://www.w3.org/2000/svg" xmlns:xlink="http://www.w3.org/1999/xlink" viewBox="0,0,256,256" width="64px" height="64px" fill-rule="nonzero"><defs><linearGradient x1="32" y1="6" x2="32" y2="58" gradientUnits="userSpaceOnUse" id="color-1"><stop offset="0" stop-color="#1a6dff"></stop><stop offset="1" stop-color="#c822ff"></stop></linearGradient><linearGradient x1="20" y1="19" x2="20" y2="34" gradientUnits="userSpaceOnUse" id="color-2"><stop offset="0" stop-color="#6dc7ff"></stop><stop offset="1" stop-color="#e6abff"></stop></linearGradient><linearGradient x1="44" y1="19" x2="44" y2="34" gradientUnits="userSpaceOnUse" id="color-3"><stop offset="0" stop-color="#6dc7ff"></stop><stop offset="1" stop-color="#e6abff"></stop></linearGradient><linearGradient x1="32" y1="19" x2="32" y2="29" gradientUnits="userSpaceOnUse" id="color-4"><stop offset="0" stop-color="#6dc7ff"></stop><stop offset="1" stop-color="#e6abff"></stop></linearGradient><linearGradient x1="30" y1="36" x2="30" y2="46" gradientUnits="userSpaceOnUse" id="color-5"><stop offset="0" stop-color="#6dc7ff"></stop><stop offset="1" stop-color="#e6abff"></stop></linearGradient><linearGradient x1="19" y1="36" x2="19" y2="46" gradientUnits="userSpaceOnUse" id="color-6"><stop offset="0" stop-color="#6dc7ff"></stop><stop offset="1" stop-color="#e6abff"></stop></linearGradient><linearGradient x1="43" y1="36" x2="43" y2="46" gradientUnits="userSpaceOnUse" id="color-7"><stop offset="0" stop-color="#6dc7ff"></stop><stop offset="1" stop-color="#e6abff"></stop></linearGradient></defs><g transform="translate(-28,-28) scale(1.21875,1.21875)"><g fill="none" fill-rule="nonzero" stroke="none" stroke-width="none" stroke-linecap="butt" stroke-linejoin="miter" stroke-miterlimit="10" stroke-dasharray="" stroke-dashoffset="0" font-family="none" font-weight="none" font-size="none" text-anchor="none" style="mix-blend-mode: normal"><g transform="scale(4,4)"><path d="M32,7c-13.80712,0 -25,11.19288 -25,25c0,13.80712 11.19288,25 25,25c13.80712,0 25,-11.19288 25,-25c0,-13.80712 -11.19288,-25 -25,-25z" fill="none" stroke="url(#color-1)" stroke-width="2"></path><path d="M23,34h-8v-2h8v-11h-6v6h4v2h-4c-1.103,0 -2,-0.897 -2,-2v-6c0,-1.103 0.897,-2 2,-2h6c1.103,0 2,0.897 2,2v11c0,1.103 -0.897,2 -2,2z" fill="url(#color-2)" stroke="none" stroke-width="1"></path><path d="M47,34h-8v-2h8v-11h-6v6h4v2h-4c-1.103,0 -2,-0.897 -2,-2v-6c0,-1.103 0.897,-2 2,-2h6c1.103,0 2,0.897 2,2v11c0,1.103 -0.897,2 -2,2z" fill="url(#color-3)" stroke="none" stroke-width="1"></path><path d="M35,29h-6c-1.103,0 -2,-0.897 -2,-2v-6c0,-1.103 0.897,-2 2,-2h6c1.103,0 2,0.897 2,2v6c0,1.103 -0.897,2 -2,2zM29,21v6h6v-6z" fill="url(#color-4)" stroke="none" stroke-width="1"></path><path d="M33,46h-6c-1.103,0 -2,-0.897 -2,-2v-6c0,-1.103 0.897,-2 2,-2h6c1.103,0 2,0.897 2,2v6c0,1.103 -0.897,2 -2,2zM27,38v6h6v-6z" fill="url(#color-5)" stroke="none" stroke-width="1"></path><path d="M23,38v-2h-6c-1.1,0 -2,0.9 -2,2v6c0,1.1 0.9,2 2,2h6v-2h-6v-6z" fill="url(#color-6)" stroke="none" stroke-width="1"></path><path d="M49,36v10h-2v-8h-3v8h-2v-8h-3v8h-2v-8c0,-1.1 0.9,-2 2,-2z" fill="url(#color-7)" stroke="none" stroke-width="1"></path></g></g></g></svg>